<?xml version="1.0" encoding="UTF-8"?>
<svg version="1.1" xmlns="http://www.w3.org/2000/svg" width="500" height="200">
<path d="M0 0 C6.0831587 -0.04975529 12.16619668 -0.08588679 18.24951172 -0.10986328 C20.31528794 -0.11986782 22.3810502 -0.13347571 24.44677734 -0.15087891 C27.43069932 -0.17537271 30.41443268 -0.18653886 33.3984375 -0.1953125 C34.76468765 -0.21079636 34.76468765 -0.21079636 36.15853882 -0.22659302 C45.74144516 -0.22823774 54.35110536 0.83495559 62 7 C66.47793207 11.82238838 67.4706085 15.85614855 67.4140625 22.29296875 C66.51669798 28.15970095 62.89777326 32.57667005 58.25 36.0625 C56 37 56 37 54 37 C54 37.66 54 38.32 54 39 C55.03125 39.2475 56.0625 39.495 57.125 39.75 C62.41828674 41.30055874 65.92370595 43.64047068 69.375 48 C71.95302637 53.05815301 71.82768453 58.49186933 71 64 C68.66332639 70.54699333 64.10201118 74.07475033 58 77 C50.79926101 79.80684226 44.19669885 80.41197935 36.5234375 80.29296875 C34.94654648 80.28660149 34.94654648 80.28660149 33.33779907 80.28010559 C30.01659317 80.26346139 26.69601906 80.22583614 23.375 80.1875 C21.10808175 80.17243473 18.84115388 80.15874957 16.57421875 80.14648438 C11.04926764 80.11360482 5.52467898 80.06355009 0 80 C0 78.02 0 76.04 0 74 C5.445 73.505 5.445 73.505 11 73 C11.02314367 64.82036512 11.04092544 56.64074387 11.05181217 48.46108437 C11.05703656 44.66317211 11.06412617 40.8652822 11.07543945 37.06738281 C11.08628408 33.40399327 11.09228019 29.74062527 11.09487724 26.07722092 C11.09672864 24.67774491 11.10034382 23.27827012 11.10573006 21.87880325 C11.11296126 19.92263178 11.11340823 17.96643874 11.11352539 16.01025391 C11.11685631 14.33813339 11.11685631 14.33813339 11.12025452 12.63223267 C11.17939149 10.02050967 11.17939149 10.02050967 10 8 C7.64400765 7.53248212 7.64400765 7.53248212 4.9375 7.375 C4.01839844 7.30023438 3.09929688 7.22546875 2.15234375 7.1484375 C1.44207031 7.09945312 0.73179688 7.05046875 0 7 C0 4.69 0 2.38 0 0 Z M26 8 C26 17.24 26 26.48 26 36 C37.0852109 37.06595952 37.0852109 37.06595952 47.4375 33.875 C51.76527605 29.01944638 52.44057342 24.50397942 52.23828125 18.1796875 C51.86469192 14.76226383 51.08930423 12.7422118 49 10 C42.76285679 6.53492044 32.62968353 4.68515823 26 8 Z M26 42 C25.92592094 46.23580253 25.87143304 50.47126341 25.83520508 54.70751953 C25.82010517 56.14899258 25.79962342 57.59041959 25.77368164 59.03173828 C25.7373487 61.10200343 25.72028671 63.17166207 25.70703125 65.2421875 C25.6913208 66.4885498 25.67561035 67.73491211 25.65942383 69.01904297 C25.77181396 70.00275879 25.8842041 70.98647461 26 72 C31.27712496 75.51808331 37.77719751 74.52178707 43.87109375 73.53515625 C48.36136454 72.40758454 50.49439293 71.59193023 53.5625 68 C56.34894773 62.18480474 56.49276843 57.64303069 55.3125 51.3125 C53.77131986 47.42285487 52.56622737 46.13973642 49 44 C43.68338701 42.14644138 39.10488578 41.74315917 33.5625 41.875 C32.46518555 41.88853516 32.46518555 41.88853516 31.34570312 41.90234375 C29.56365702 41.92563847 27.78178241 41.9614981 26 42 Z " fill="#FDF5E3" transform="translate(34,57)"/>
<path d="M0 0 C6.93 0 13.86 0 21 0 C21.33 16.5 21.66 33 22 50 C26.62 45.71 31.24 41.42 36 37 C33.69 36.34 31.38 35.68 29 35 C29 33.02 29 31.04 29 29 C38.24 29 47.48 29 57 29 C57.495 31.475 57.495 31.475 58 34 C55.38285556 35.07764771 52.86799039 36.03443729 50.125 36.75 C46.52070712 38.19171715 44.3149193 40.12244084 41.515625 42.7578125 C40 44 40 44 38 44 C37.34 45.32 36.68 46.64 36 48 C36.49628906 48.67804688 36.99257813 49.35609375 37.50390625 50.0546875 C39.67654778 53.03124762 41.84032698 56.0140173 44 59 C44.68964844 59.95261719 45.37929688 60.90523437 46.08984375 61.88671875 C46.72019531 62.76972656 47.35054688 63.65273437 48 64.5625 C48.5775 65.36816406 49.155 66.17382812 49.75 67.00390625 C51 69 51 69 51 71 C54.3 71.99 57.6 72.98 61 74 C61 75.98 61 77.96 61 80 C51.43 80 41.86 80 32 80 C32 78.02 32 76.04 32 74 C34.97 73.01 34.97 73.01 38 72 C37.54109375 71.34773438 37.0821875 70.69546875 36.609375 70.0234375 C33.3516602 65.38324709 30.11614247 60.73653655 27 56 C24.25933726 57.18231361 24.25933726 57.18231361 22 60 C21.54448708 64.02994957 21.71419845 67.96067147 22 72 C24.64 72.66 27.28 73.32 30 74 C30.042721 75.66611905 30.04063832 77.33382885 30 79 C29 80 29 80 26.31616211 80.11352539 C25.14835205 80.10828857 23.98054199 80.10305176 22.77734375 80.09765625 C20.88725586 80.09282227 20.88725586 80.09282227 18.95898438 80.08789062 C17.61848891 80.07953403 16.27799412 80.07106907 14.9375 80.0625 C13.59310058 80.0574866 12.2486994 80.05292342 10.90429688 80.04882812 C7.60282059 80.03699488 4.30143197 80.02050971 1 80 C1 78.02 1 76.04 1 74 C4.96 73.01 4.96 73.01 9 72 C9 51.21 9 30.42 9 9 C4.545 8.01 4.545 8.01 0 7 C0 4.69 0 2.38 0 0 Z " fill="#FDF5E3" transform="translate(373,57)"/>
<path d="M0 0 C0.83265381 0.00523682 1.66530762 0.01047363 2.52319336 0.01586914 C3.33280518 0.0183667 4.14241699 0.02086426 4.9765625 0.0234375 C6.01159912 0.0325415 7.04663574 0.04164551 8.11303711 0.05102539 C11.39241211 0.07165039 14.67178711 0.09227539 18.05053711 0.11352539 C18.38053711 11.00352539 18.71053711 21.89352539 19.05053711 33.11352539 C21.36053711 31.46352539 23.67053711 29.81352539 26.05053711 28.11352539 C28.99293187 27.62167966 31.20766483 27.40559374 34.11303711 27.48852539 C34.79430664 27.46918945 35.47557617 27.44985352 36.17749023 27.42993164 C40.55286307 27.47196212 43.61946087 28.39974301 46.79711914 31.48730469 C52.54345961 38.94277292 51.5961063 49.23029983 51.73803711 58.17602539 C51.77127332 59.62852894 51.80576862 61.08100425 51.84155273 62.53344727 C51.9257289 66.05993278 51.99287362 69.58649501 52.05053711 73.11352539 C54.69053711 73.44352539 57.33053711 73.77352539 60.05053711 74.11352539 C60.05053711 76.09352539 60.05053711 78.07352539 60.05053711 80.11352539 C50.48053711 80.11352539 40.91053711 80.11352539 31.05053711 80.11352539 C31.05053711 78.13352539 31.05053711 76.15352539 31.05053711 74.11352539 C35.01053711 73.12352539 35.01053711 73.12352539 39.05053711 72.11352539 C39.12497601 68.07511969 39.1792744 64.03698246 39.21533203 59.99804688 C39.23037143 58.62558022 39.25080844 57.25316125 39.27685547 55.88085938 C39.31344932 53.90263883 39.32870409 51.92406026 39.34350586 49.94555664 C39.36707153 48.16242065 39.36707153 48.16242065 39.39111328 46.34326172 C39.01722457 42.79761743 38.17931294 40.94294374 36.05053711 38.11352539 C32.95004783 36.56328075 30.47159493 36.82360524 27.05053711 37.11352539 C22.69725202 39.68592113 20.80911684 42.42397943 19.05053711 47.11352539 C18.68781298 51.4120659 18.76818244 55.6787183 18.86303711 59.98852539 C18.87657227 61.15383789 18.89010742 62.31915039 18.90405273 63.51977539 C18.9392789 66.38483657 18.98853996 69.24893916 19.05053711 72.11352539 C21.69053711 72.77352539 24.33053711 73.43352539 27.05053711 74.11352539 C27.09325811 75.77964444 27.09117543 77.44735424 27.05053711 79.11352539 C26.05053711 80.11352539 26.05053711 80.11352539 23.45849609 80.22705078 C22.33258057 80.22181396 21.20666504 80.21657715 20.04663086 80.21118164 C18.22421875 80.20634766 18.22421875 80.20634766 16.36499023 80.20141602 C15.0855957 80.19303711 13.80620117 80.1846582 12.48803711 80.17602539 C11.20477539 80.17151367 9.92151367 80.16700195 8.59936523 80.16235352 C5.41637689 80.15052085 2.23347949 80.13403607 -0.94946289 80.11352539 C-0.94946289 78.13352539 -0.94946289 76.15352539 -0.94946289 74.11352539 C1.36053711 73.12352539 3.67053711 72.13352539 6.05053711 71.11352539 C6.05053711 50.32352539 6.05053711 29.53352539 6.05053711 8.11352539 C3.08053711 7.78352539 0.11053711 7.45352539 -2.94946289 7.11352539 C-2.99200645 5.11397793 -2.99027072 3.11310903 -2.94946289 1.11352539 C-1.94946289 0.11352539 -1.94946289 0.11352539 0 0 Z " fill="#FDF4E3" transform="translate(110.949462890625,56.886474609375)"/>
<path d="M0 0 C0.89009766 -0.02900391 1.78019531 -0.05800781 2.69726562 -0.08789062 C8.36273403 -0.14248743 11.79822273 0.36685565 16.1875 4.3125 C19.45140166 8.56546277 19.65574027 12.49334509 19.69921875 17.67578125 C19.71716995 18.46776413 19.73512115 19.25974701 19.75361633 20.07572937 C19.80756838 22.59209962 19.84156563 25.10828185 19.875 27.625 C19.90818651 29.33661462 19.94267741 31.04820448 19.97851562 32.75976562 C20.06328582 36.94387442 20.13016843 41.12792893 20.1875 45.3125 C21.30125 45.10625 22.415 44.9 23.5625 44.6875 C24.75875 44.56375 25.955 44.44 27.1875 44.3125 C27.8475 44.9725 28.5075 45.6325 29.1875 46.3125 C29.0625 48.8125 29.0625 48.8125 28.1875 51.3125 C24.1088295 53.90312808 19.87770531 54.17670599 15.1875 53.3125 C12.3125 50.8125 12.3125 50.8125 10.1875 48.3125 C6.25147659 48.3125 5.19388119 49.89272978 2.1875 52.3125 C-1.24729869 53.51849599 -4.63466154 53.47910209 -8.25 53.5 C-9.91869141 53.52126953 -9.91869141 53.52126953 -11.62109375 53.54296875 C-15.98208786 53.22803772 -18.75515802 52.22298893 -22.0625 49.375 C-24.88628284 46.04697022 -25.24316298 42.73335638 -25.1328125 38.4296875 C-24.52755827 34.42910469 -22.80062904 31.98674994 -19.8125 29.3125 C-11.64868207 23.97847172 -1.64765197 20.3125 8.1875 20.3125 C7.95832032 18.70522673 7.70329198 17.10162584 7.4375 15.5 C7.29828125 14.60667969 7.1590625 13.71335937 7.015625 12.79296875 C5.99011352 9.72127161 5.01366094 8.84312876 2.1875 7.3125 C-0.06595409 6.8796105 -0.06595409 6.8796105 -2.375 7 C-3.52162109 7.00580078 -3.52162109 7.00580078 -4.69140625 7.01171875 C-7.11038749 7.19881304 -7.11038749 7.19881304 -9.8125 9.3125 C-9.4825 9.869375 -9.1525 10.42625 -8.8125 11 C-7.64446398 13.70108329 -7.43882976 15.39787214 -7.8125 18.3125 C-9.38038343 20.62306506 -10.54522468 21.22106371 -13.1875 22.125 C-16.262352 22.34463229 -18.06606983 21.64648037 -20.8125 20.3125 C-22.23991161 12.41874182 -22.23991161 12.41874182 -20.75 8.5625 C-14.51112174 1.31735105 -9.23315286 0.09899735 0 0 Z M-10.66015625 33.56640625 C-12.90466089 36.96740142 -12.51676517 39.34300539 -11.8125 43.3125 C-10.43533334 46.02357713 -10.43533334 46.02357713 -7.8125 47.3125 C-1.84135154 47.65698933 1.31213989 45.02613469 5.5859375 41.296875 C8.32833291 37.8989802 8.32168329 34.22931412 8.25 30 C8.229375 28.783125 8.20875 27.56625 8.1875 26.3125 C1.51749734 26.3125 -5.90937067 28.90854557 -10.66015625 33.56640625 Z " fill="#FDF5E4" transform="translate(200.8125,84.6875)"/>
<path d="M0 0 C1.18613892 0.00785522 1.18613892 0.00785522 2.39624023 0.01586914 C3.67724609 0.02070312 3.67724609 0.02070312 4.98413086 0.02563477 C5.88196289 0.03401367 6.77979492 0.04239258 7.70483398 0.05102539 C8.6065332 0.05553711 9.50823242 0.06004883 10.43725586 0.06469727 C12.67234712 0.07652315 14.90730835 0.09300319 17.14233398 0.11352539 C17.16215332 1.23847412 17.18197266 2.36342285 17.20239258 3.52246094 C17.27861553 7.7066032 17.36730705 11.89040527 17.4597168 16.07421875 C17.49793766 17.88306957 17.53280248 19.6919946 17.56420898 21.50097656 C17.61000956 24.10516841 17.66797872 26.70885239 17.72827148 29.31274414 C17.73982269 30.11814133 17.7513739 30.92353851 17.76327515 31.75334167 C17.87346063 35.97012838 18.21830259 39.2620871 20.14233398 43.11352539 C25.84203357 43.45550737 30.3079233 43.56667588 35.14233398 40.11352539 C39.26249848 34.34724316 38.47884923 28.00916682 38.32983398 21.23852539 C38.31629883 20.07321289 38.30276367 18.90790039 38.28881836 17.70727539 C38.2535922 14.84221421 38.20433113 11.97811162 38.14233398 9.11352539 C35.83233398 8.45352539 33.52233398 7.79352539 31.14233398 7.11352539 C31.14233398 4.80352539 31.14233398 2.49352539 31.14233398 0.11352539 C37.41233398 0.11352539 43.68233398 0.11352539 50.14233398 0.11352539 C50.47233398 14.30352539 50.80233398 28.49352539 51.14233398 43.11352539 C53.78233398 44.10352539 56.42233398 45.09352539 59.14233398 46.11352539 C59.18505499 47.77964444 59.18297231 49.44735424 59.14233398 51.11352539 C58.14233398 52.11352539 58.14233398 52.11352539 56.37646484 52.22705078 C55.6276001 52.22181396 54.87873535 52.21657715 54.10717773 52.21118164 C53.29829102 52.20795898 52.4894043 52.20473633 51.65600586 52.20141602 C50.80586914 52.19303711 49.95573242 52.1846582 49.07983398 52.17602539 C48.22583008 52.17151367 47.37182617 52.16700195 46.49194336 52.16235352 C44.37537735 52.15052912 42.25884713 52.13259308 40.14233398 52.11352539 C39.48233398 50.13352539 38.82233398 48.15352539 38.14233398 46.11352539 C37.65506836 46.54665039 37.16780273 46.97977539 36.66577148 47.42602539 C30.58507755 52.20213408 25.81302001 52.71929496 18.18139648 52.51977539 C15.14233398 52.11352539 15.14233398 52.11352539 12.14233398 50.11352539 C12.14233398 49.45352539 12.14233398 48.79352539 12.14233398 48.11352539 C11.21420898 47.83508789 11.21420898 47.83508789 10.26733398 47.55102539 C7.04059673 45.36823254 7.00095563 42.84071323 6.14233398 39.11352539 C5.92489195 36.63092347 5.7902964 34.14001587 5.72827148 31.64868164 C5.70890533 30.97050888 5.68953918 30.29233612 5.66958618 29.59361267 C5.610414 27.45453973 5.56365879 25.31541111 5.51733398 23.17602539 C5.47909653 21.71441503 5.44004156 20.25282582 5.40014648 18.79125977 C5.30476579 15.23220996 5.22050831 11.67299952 5.14233398 8.11352539 C2.50233398 7.78352539 -0.13766602 7.45352539 -2.85766602 7.11352539 C-2.90020958 5.11397793 -2.89847384 3.11310903 -2.85766602 1.11352539 C-1.85766602 0.11352539 -1.85766602 0.11352539 0 0 Z " fill="#FDF5E3" transform="translate(235.857666015625,84.886474609375)"/>
<path d="M0 0 C2.31 0 4.62 0 7 0 C7 6.6 7 13.2 7 20 C11.95 20 16.9 20 22 20 C22 22.31 22 24.62 22 27 C17.05 27 12.1 27 7 27 C7.07398435 31.64570709 7.15678783 36.28948143 7.26245117 40.93432617 C7.29570188 42.51430243 7.32373346 44.09439752 7.34643555 45.67456055 C7.37998016 47.94631579 7.43229227 50.21698203 7.48828125 52.48828125 C7.49467117 53.19463211 7.5010611 53.90098297 7.50764465 54.6287384 C7.59162183 57.43074764 7.75618655 59.57179588 9.15698242 62.03198242 C11.5552829 63.52845132 11.5552829 63.52845132 17 62 C17.99 58.04 18.98 54.08 20 50 C21.65 50 23.3 50 25 50 C26.52528368 54.57585103 25.52248689 58.48715768 24 63 C21.86819742 66.30755999 19.5547715 69.22261425 16 71 C13.75805873 71.25293696 11.5041587 71.40488782 9.25 71.5 C7.43242187 71.60828125 7.43242187 71.60828125 5.578125 71.71875 C1.17639778 70.83456025 -0.0061927 69.4594907 -2.75012207 66.07650757 C-4.88364809 62.53193507 -4.74780776 59.26422772 -4.5859375 55.22265625 C-4.57744781 54.41130722 -4.56895813 53.59995819 -4.56021118 52.76402283 C-4.52686369 50.19544541 -4.45163079 47.63011348 -4.375 45.0625 C-4.34487579 43.3118946 -4.31750429 41.56123953 -4.29296875 39.81054688 C-4.22713511 35.53913129 -4.12375303 31.27011407 -4 27 C-6.97 27 -9.94 27 -13 27 C-13 25.02 -13 23.04 -13 21 C-12.46890625 20.79246094 -11.9378125 20.58492187 -11.390625 20.37109375 C-6.91471112 18.41900722 -3.93687483 16.65402222 -1.67578125 12.08203125 C-0.39903031 8.14845756 -0.16544722 4.11136348 0 0 Z " fill="#FDF4E3" transform="translate(311,66)"/>
<path d="M0 0 C0.33 14.52 0.66 29.04 1 44 C3.97 44.66 6.94 45.32 10 46 C10.042721 47.66611905 10.04063832 49.33382885 10 51 C8.14285943 52.85714057 5.07492951 52.13048681 2.59375 52.1328125 C1.29308594 52.13410156 -0.00757813 52.13539063 -1.34765625 52.13671875 C-2.02844238 52.13462402 -2.70922852 52.1325293 -3.41064453 52.13037109 C-5.49128515 52.1250224 -7.57170989 52.1303168 -9.65234375 52.13671875 C-11.60333984 52.13478516 -11.60333984 52.13478516 -13.59375 52.1328125 C-14.79708984 52.13168457 -16.00042969 52.13055664 -17.24023438 52.12939453 C-20 52 -20 52 -21 51 C-21.04063832 49.33382885 -21.042721 47.66611905 -21 46 C-18.03 45.34 -15.06 44.68 -12 44 C-12 32.12 -12 20.24 -12 8 C-15.3 7.67 -18.6 7.34 -22 7 C-22 5.02 -22 3.04 -22 1 C-15.03580586 -1.32139805 -7.34090518 0 0 0 Z " fill="#FDF5E4" transform="translate(361,85)"/>
<path d="M0 0 C1.82599685 3.04332808 1.54960581 5.41749555 1.125 8.875 C-0.4375 11.3125 -0.4375 11.3125 -2.875 12.875 C-7.27703429 13.33837203 -9.1544164 13.35538907 -12.875 10.875 C-13.76388178 7.25109737 -14.05835151 4.64174266 -13.1875 1 C-11.875 -1.125 -11.875 -1.125 -10.125 -2 C-6.41804792 -2.20594178 -3.2260018 -1.93560108 0 0 Z " fill="#FDF5E4" transform="translate(455.875,125.125)"/>
<path d="M0 0 C1.875 0.3828125 1.875 0.3828125 3.875 2.0078125 C5.13998755 5.01215794 5.21886442 7.15048692 4.875 10.3828125 C2.875 13.3828125 2.875 13.3828125 -0.5 14.1953125 C-3.97242335 14.3749206 -5.37568501 14.3919273 -8.125 12.3828125 C-9.52957737 9.57365776 -9.37395157 7.49470716 -9.125 4.3828125 C-7.23887124 -0.09674329 -4.45999274 -0.24595548 0 0 Z " fill="#FDF4E4" transform="translate(356.125,56.6171875)"/>
</svg>
